<?xml version="1.0" encoding="UTF-8" standalone="no"?>
<!-- Created with Inkscape (http://www.inkscape.org/) -->

<svg
   width="1200"
   height="800"
   viewBox="0 0 317.49999 211.66667"
   version="1.1"
   id="svg1"
   inkscape:version="1.3.2 (091e20ef0f, 2023-11-25)"
   sodipodi:docname="thumbnail-template.svg"
   xml:space="preserve"
   xmlns:inkscape="http://www.inkscape.org/namespaces/inkscape"
   xmlns:sodipodi="http://sodipodi.sourceforge.net/DTD/sodipodi-0.dtd"
   xmlns:xlink="http://www.w3.org/1999/xlink"
   xmlns="http://www.w3.org/2000/svg"
   xmlns:svg="http://www.w3.org/2000/svg"><sodipodi:namedview
     id="namedview1"
     pagecolor="#ffffff"
     bordercolor="#000000"
     borderopacity="0.25"
     inkscape:showpageshadow="2"
     inkscape:pageopacity="0.0"
     inkscape:pagecheckerboard="0"
     inkscape:deskcolor="#d1d1d1"
     inkscape:document-units="px"
     inkscape:zoom="0.63963244"
     inkscape:cx="508.88601"
     inkscape:cy="479.96315"
     inkscape:window-width="1920"
     inkscape:window-height="1011"
     inkscape:window-x="0"
     inkscape:window-y="0"
     inkscape:window-maximized="1"
     inkscape:current-layer="layer1" /><defs
     id="defs1" /><g
     inkscape:label="Layer 1"
     inkscape:groupmode="layer"
     id="layer1"><rect
       style="opacity:1;fill:#3d3e48;stroke:none;stroke-width:5.65801;stroke-linecap:round;stroke-linejoin:round;fill-opacity:1"
       id="rect1"
       width="317.5"
       height="211.66666"
       x="0"
       y="0" /><text
       xml:space="preserve"
       style="font-style:normal;font-variant:normal;font-weight:normal;font-stretch:normal;font-size:61.9426px;font-family:Inter;-inkscape-font-specification:Inter;letter-spacing:3.31834px;white-space:pre;inline-size:452.163;display:inline;opacity:1;fill:#ffffff;stroke:none;stroke-width:12.4472;stroke-linecap:round;stroke-linejoin:round"
       x="12.98645"
       y="71.536011"
       id="text1"
       transform="matrix(0.45456252,0,0,0.45456252,20.546642,6.0879975)"><tspan
         x="12.98645"
         y="71.536011"
         id="tspan4"><tspan
           style="stroke-width:12.4471"
           id="tspan3">{{title}}</tspan></tspan></text><g
       style="fill:none;stroke-width:0.232816"
       id="g1"
       transform="matrix(1.1364509,0,0,1.1364509,27.04949,172.33483)"><g
         id="g2"
         transform="scale(0.82758621)"
         style="stroke-width:0.232816"><path
           d="m 4.56462,23.7314 c -0.53129,0 -0.90263,0.4227 -0.90263,0.9026 0,0.4799 0.42275,0.9026 0.90263,0.9026 H 21.869 v -1.8052 z"
           fill="#ffffff"
           id="path1"
           style="stroke-width:0.232816" /><path
           fill-rule="evenodd"
           clip-rule="evenodd"
           d="M 25.0348,27.1592 V 3.63066 H 27 V 29 H 3.86403 C 1.7361,29 0,27.3687 0,25.3693 V 3.63066 C 0,1.63125 1.7361,0 3.86403,0 H 23.136 V 21.6877 H 4.81648 c -1.62157,0 -2.91159,1.2121 -2.91159,2.7357 0,1.5237 1.34427,2.7358 2.91159,2.7358 z M 18.8185,16.4218 15.1138,12.7156 C 15.0389,12.6422 14.9499,12.5923 14.8501,12.5611 15.479,11.6778 15.8535,10.5948 15.8535,9.42596 15.8519,6.42974 13.4222,4 10.4275,4 7.42974,4 5,6.42974 5,9.42752 c 0,2.99618 2.42974,5.42598 5.4275,5.42598 1.1689,0 2.2503,-0.373 3.1367,-1.0034 0.0296,0.0983 0.0796,0.1888 0.1529,0.2637 l 3.7063,3.7047 c 0.2965,0.2949 0.8473,0.2231 1.2328,-0.1623 0.3854,-0.3855 0.4572,-0.9379 0.1623,-1.2344 z m -8.391,-3.5424 c -1.90539,0 -3.45343,-1.5465 -3.45343,-3.45344 0,-1.90541 1.54804,-3.45345 3.45343,-3.45345 1.907,0 3.4535,1.54804 3.4535,3.45345 -0.0016,1.90694 -1.5481,3.45344 -3.4535,3.45344 z"
           fill="#ffffff"
           id="path2"
           style="stroke-width:0.232816" /></g></g><text
       xml:space="preserve"
       style="font-style:normal;font-variant:normal;font-weight:normal;font-stretch:normal;font-size:12.7277px;font-family:Inter;-inkscape-font-specification:Inter;letter-spacing:0.681836px;opacity:1;fill:#ffffff;fill-opacity:1;stroke:none;stroke-width:5.65799;stroke-linecap:round;stroke-linejoin:round"
       x="57.07613"
       y="191.48125"
       id="text2"><tspan
         sodipodi:role="line"
         id="tspan2"
         style="fill:#ffffff;stroke-width:5.65799"
         x="57.07613"
         y="191.48125">Suroi Wiki</tspan></text><rect
       style="opacity:1;fill:#ff7500;fill-opacity:1;stroke:none;stroke-width:5.65801;stroke-linecap:round;stroke-linejoin:round"
       id="rect2"
       width="9.7773056"
       height="211.66666"
       x="0"
       y="0" /><image
       preserveAspectRatio="none"
       inkscape:svg-dpi="96"
       width="92.009277"
       height="92.009277"
       xlink:href="--thumbnail--"
       id="image1"
       x="206.17686"
       y="103.56062"
       style="stroke-width:1.47232" /></g></svg>
